<?xml version="1.0" encoding="UTF-8" standalone="no"?>
<!-- Created with Inkscape (http://www.inkscape.org/) -->

<svg
   width="250.9931mm"
   height="289.82187mm"
   viewBox="0 0 250.9931 289.82186"
   version="1.1"
   id="svg179"
   inkscape:version="1.2.2 (b0a8486541, 2022-12-01)"
   sodipodi:docname="favicon.svg"
   xmlns:inkscape="http://www.inkscape.org/namespaces/inkscape"
   xmlns:sodipodi="http://sodipodi.sourceforge.net/DTD/sodipodi-0.dtd"
   xmlns="http://www.w3.org/2000/svg"
   xmlns:svg="http://www.w3.org/2000/svg">
  <sodipodi:namedview
     id="namedview181"
     pagecolor="#ffffff"
     bordercolor="#000000"
     borderopacity="0.25"
     inkscape:showpageshadow="2"
     inkscape:pageopacity="0.0"
     inkscape:pagecheckerboard="0"
     inkscape:deskcolor="#d1d1d1"
     inkscape:document-units="mm"
     showgrid="false"
     inkscape:zoom="0.2102413"
     inkscape:cx="623.09356"
     inkscape:cy="1136.789"
     inkscape:window-width="1920"
     inkscape:window-height="1131"
     inkscape:window-x="0"
     inkscape:window-y="0"
     inkscape:window-maximized="1"
     inkscape:current-layer="layer1" />
  <defs
     id="defs176" />
  <g
     inkscape:label="Layer 1"
     inkscape:groupmode="layer"
     id="layer1"
     transform="translate(828.43583,23.772783)">
    <path
       sodipodi:type="star"
       style="font-variation-settings:'wght' 600;fill:#ffffff;stroke:none;stroke-width:7.14375;stroke-linecap:round;paint-order:stroke fill markers"
       id="path296"
       inkscape:flatsided="true"
       sodipodi:sides="6"
       sodipodi:cx="-887.29889"
       sodipodi:cy="-1060.8346"
       sodipodi:r1="429.90839"
       sodipodi:r2="372.31158"
       sodipodi:arg1="0.52359878"
       sodipodi:arg2="1.0471976"
       inkscape:rounded="0"
       inkscape:randomized="0"
       d="m -514.98731,-845.8804 -372.31158,214.95419 -372.31161,-214.95419 0,-429.9084 372.31161,-214.9542 372.31159,214.9542 z"
       transform="matrix(0.3338709,0,0,0.3338709,-406.696,475.31995)"
       inkscape:transform-center-x="-1.0005155e-05"
       inkscape:transform-center-y="1.3871656e-05" />
    <g
       id="g363"
       transform="translate(43.034352,-329.39575)">
      <g
         id="g1460"
         transform="matrix(0.19555501,-0.17822058,0.17822058,0.19555501,-1062.9602,618.44334)">
        <rect
           style="font-variation-settings:'wght' 600;fill:#000000;stroke:none;stroke-width:24.5474;stroke-linecap:round;stroke-dasharray:none;paint-order:stroke fill markers"
           id="rect1376"
           width="275.32504"
           height="149.51987"
           x="1209.0372"
           y="52.147293" />
        <rect
           style="font-variation-settings:'wght' 600;fill:#000000;stroke:none;stroke-width:26.5;stroke-linecap:round;stroke-dasharray:none;paint-order:stroke fill markers"
           id="rect1378"
           width="320.86728"
           height="149.51987"
           x="1246.1001"
           y="52.147293"
           ry="74.759933" />
        <g
           id="g1452"
           transform="translate(48,-7.1290924)">
          <path
             style="font-variation-settings:'wght' 600;fill:none;stroke:#000000;stroke-width:27;stroke-linecap:round;stroke-dasharray:none;paint-order:stroke fill markers"
             d="M 1112.7339,88.665418 H 929.45523"
             id="path1443" />
          <path
             style="font-variation-settings:'wght' 600;fill:none;stroke:#000000;stroke-width:27;stroke-linecap:round;stroke-dasharray:none;paint-order:stroke fill markers"
             d="M 1062.4201,134.03632 H 879.14145"
             id="path1445" />
          <path
             style="font-variation-settings:'wght' 600;fill:none;stroke:#000000;stroke-width:27;stroke-linecap:round;stroke-dasharray:none;paint-order:stroke fill markers"
             d="M 1112.7339,179.40722 H 929.45525"
             id="path1447" />
        </g>
      </g>
      <g
         id="g248"
         transform="matrix(0.26458333,0,0,0.26458333,-899.66686,349.25196)"
         style="stroke:#ffffff;stroke-width:26.5;stroke-dasharray:none;paint-order:stroke fill markers">
        <path
           d="M 833.556,367.574 C 825.803,359.619 814.97,355.419 803.9,356.025 l -133.981,7.458 73.733,-83.975 c 10.504,-11.962 13.505,-27.908 9.444,-42.157 -2.143,-9.764 -8.056,-18.648 -17.14,-24.324 -0.279,-0.199 -176.247,-102.423 -176.247,-102.423 -14.369,-8.347 -32.475,-6.508 -44.875,4.552 l -85.958,76.676 c -15.837,14.126 -17.224,38.416 -3.097,54.254 14.128,15.836 38.419,17.227 54.255,3.096 l 65.168,-58.131 53.874,31.285 -95.096,108.305 c -39.433,6.431 -74.913,24.602 -102.765,50.801 l 49.66,49.66 c 22.449,-20.412 52.256,-32.871 84.918,-32.871 69.667,0 126.346,56.68 126.346,126.348 0,32.662 -12.459,62.467 -32.869,84.916 l 49.657,49.66 c 33.08,-35.166 53.382,-82.484 53.382,-134.576 0,-31.035 -7.205,-60.384 -20.016,-86.482 l 51.861,-2.889 -12.616,154.75 c -1.725,21.152 14.027,39.695 35.18,41.422 1.059,0.086 2.116,0.127 3.163,0.127 19.806,0 36.621,-15.219 38.257,-35.306 l 16.193,-198.685 c 0.904,-11.071 -3.026,-21.989 -10.775,-29.942 z"
           id="path242"
           style="stroke:#ffffff;stroke-width:26.5;stroke-dasharray:none;paint-order:stroke fill markers" />
        <path
           d="m 762.384,202.965 c 35.523,0 64.317,-28.797 64.317,-64.322 0,-35.523 -28.794,-64.323 -64.317,-64.323 -35.527,0 -64.323,28.8 -64.323,64.323 0,35.525 28.795,64.322 64.323,64.322 z"
           id="path244"
           style="stroke:#ffffff;stroke-width:26.5;stroke-dasharray:none;paint-order:stroke fill markers" />
        <path
           d="m 535.794,650.926 c -69.668,0 -126.348,-56.68 -126.348,-126.348 0,-26.256 8.056,-50.66 21.817,-70.887 l -50.196,-50.195 c -26.155,33.377 -41.791,75.393 -41.791,121.082 0,108.535 87.983,196.517 196.518,196.517 45.691,0 87.703,-15.636 121.079,-41.792 L 606.678,629.11 c -20.226,13.757 -44.63,21.816 -70.884,21.816 z"
           id="path246"
           style="stroke:#ffffff;stroke-width:26.5;stroke-dasharray:none;paint-order:stroke fill markers" />
      </g>
    </g>
  </g>
</svg>
